<svg width="31" height="31" viewBox="0 0 31 31" fill="none" xmlns="http://www.w3.org/2000/svg">
<path d="M15.5 0C6.94 0 0 6.94 0 15.5C0 22.36 4.42 28.2 10.56 30.42C11.32 30.56 11.6 30.06 11.6 29.62C11.6 29.22 11.58 27.54 11.58 25.9C7.75 26.66 7.25 24.74 7.25 24.74C6.6 23.08 5.65 22.6 5.65 22.6C4.42 21.7 5.77 21.72 5.77 21.72C7.17 21.82 7.85 23.16 7.85 23.16C9.05 25.18 11.07 24.58 11.62 24.32C11.74 23.44 12.1 22.84 12.5 22.52C9.15 22.17 5.73 20.85 5.73 14.92C5.73 13.3 6.28 11.97 7.9 10.9C7.68 10.39 7.22 9.06 7.88 7.35C7.88 7.35 8.99 7.01 11.6 8.75C12.65 8.44 13.79 8.29 14.93 8.29C16.07 8.29 17.21 8.44 18.26 8.76C20.85 6.99 21.96 7.33 21.96 7.33C22.62 9.04 22.16 10.37 21.94 10.88C23.56 11.95 24.11 13.28 24.11 14.9C24.11 20.84 20.68 22.15 17.31 22.49C17.76 22.97 18.13 23.75 18.13 24.88C18.13 26.49 18.11 27.79 18.11 29.61C18.11 30.06 18.38 30.58 19.15 30.42C25.29 28.2 29.7 22.36 29.7 15.5C29.7 6.94 22.76 0 15.5 0Z" fill="#009AFF"/>
</svg>

