<svg width="138" height="48" viewBox="0 0 138 48" fill="none" xmlns="http://www.w3.org/2000/svg">
<path d="M22.1755 44.2181C17.1369 44.2181 12.0983 44.2015 7.05972 44.2248C3.83429 44.2397 0.698695 41.9957 0.0432967 38.2131C-0.0082702 37.917 0.0150181 37.6059 0.0150181 37.3015C0.0133546 27.2509 0.0416332 17.202 4.70433e-05 7.15149C-0.0132605 3.82293 2.79797 0.264817 6.90003 0.26648C16.1738 0.273134 25.4491 0.27147 34.7229 0.278124C35.8024 0.278124 36.882 0.276461 37.9599 0.323037C41.1188 0.45944 43.8968 3.29063 44.2411 6.23327C44.3376 7.05501 44.3875 7.88674 44.3892 8.71347C44.3991 18.0986 44.3991 27.4838 44.3941 36.869C44.3925 40.0562 42.6525 42.6911 39.7864 43.7424C39.0279 44.0202 38.1828 44.1915 37.3761 44.1981C32.3092 44.2381 27.244 44.2181 22.1771 44.2181H22.1755ZM24.9518 31.0103C24.2897 33.8548 25.8084 36.8723 28.7162 37.8488C31.4409 38.7637 34.3968 37.4845 35.6694 34.8712C36.3115 33.5504 36.4612 32.1681 36.037 30.7725C35.4481 28.8379 34.119 27.5437 32.3159 26.8184V17.39C35.7592 15.9661 36.9469 12.749 35.9139 9.93444C34.9607 7.33613 32.1595 5.48472 28.969 6.34139C27.5833 6.71234 26.5004 7.5424 25.7303 8.75339C24.7638 10.2705 24.5309 11.9023 25.0749 13.6406C22.3768 15.2924 19.7102 16.9242 17.0454 18.5561C13.7534 15.6001 10.513 16.4319 8.54185 18.3831C6.48084 20.4225 6.43759 23.8758 8.19419 26.0117C9.1041 27.1179 10.2718 27.8431 11.6808 28.0577C13.637 28.3555 15.3836 27.8215 16.7959 26.4508C19.5622 27.9962 22.267 29.5066 24.9551 31.0087L24.9518 31.0103Z" fill="#009AFF"/>
<path d="M75.6418 36.5695H72.2068V20.662H75.3341C77.7477 23.9573 80.1997 27.3058 82.7564 30.7974V20.667H86.1199V36.5512H82.803C80.4758 33.3574 78.0971 30.0954 75.6401 26.7236V36.5695H75.6418Z" fill="#009AFF"/>
<path d="M73.8369 16.6414C69.5152 16.8161 65.3333 13.3361 65.3649 8.26927C65.3949 3.44028 69.0994 -0.0130422 73.9483 0.0252171C78.922 0.0634764 82.3604 3.97258 82.2938 8.45224C82.2206 13.4143 78.2117 16.7845 73.8369 16.6397V16.6414ZM68.933 8.28923C68.933 10.9973 70.9175 13.3844 73.915 13.3827C76.535 13.3827 78.7374 11.2884 78.769 8.42397C78.8023 5.36988 76.4817 3.45192 74.0847 3.31385C71.4099 3.15915 68.8981 5.4414 68.933 8.28923Z" fill="#009AFF"/>
<path d="M111.444 16.2986H107.737C109.856 10.9507 111.96 5.63927 114.059 0.341187H117.812C119.878 5.63761 121.942 10.9307 124.028 16.2754H120.202C119.818 15.2656 119.422 14.2243 119.02 13.168H112.596C112.22 14.1927 111.844 15.2157 111.446 16.297L111.444 16.2986ZM117.995 10.2587C117.28 8.3091 116.594 6.43772 115.858 4.43161C115.109 6.466 114.42 8.34071 113.715 10.2587H117.993H117.995Z" fill="#009AFF"/>
<path d="M89.7658 36.5429V20.6637H93.101V27.542C93.1459 27.5686 93.1925 27.5953 93.2374 27.6235C95.1022 25.303 96.9686 22.9809 98.8499 20.6404H103.092C101.122 22.9692 99.1859 25.2565 97.2197 27.5786C99.2375 30.5495 101.255 33.5188 103.321 36.5612H99.136C97.7171 34.462 96.2899 32.3461 94.8244 30.1786C94.2372 30.8673 93.6832 31.5143 93.1376 32.1531V36.5446H89.7642L89.7658 36.5429Z" fill="#009AFF"/>
<path d="M50.9679 14.1845C51.6848 13.2712 52.3802 12.3846 53.1121 11.4514C53.3649 11.7192 53.6044 11.9671 53.8373 12.2216C55.0799 13.5873 56.6885 13.7952 58.3852 13.5773C58.7761 13.5274 59.1936 13.213 59.4797 12.9086C60.1302 12.2166 60.0021 11.2651 59.1737 10.8043C58.5349 10.45 57.8163 10.2304 57.121 9.98592C56.2942 9.69648 55.4342 9.49021 54.6208 9.16584C52.435 8.29419 51.4569 6.90355 51.5418 4.78764C51.6299 2.62848 52.9474 1.07815 54.8687 0.399464C57.6716 -0.590287 61.3362 0.322946 63.0362 2.44052C62.3825 3.22067 61.7187 4.01414 61.0118 4.85917C60.7772 4.63793 60.5543 4.40671 60.3081 4.20211C59.1687 3.25893 57.8961 2.7915 56.4057 3.16412C55.6638 3.35042 55.2163 3.83781 55.0799 4.58137C54.9735 5.17023 55.3561 5.82064 56.0996 6.12339C57.0594 6.51596 58.0725 6.7738 59.0439 7.13809C59.884 7.45248 60.744 7.75856 61.5158 8.2027C63.161 9.15253 63.5419 10.8759 63.2874 12.4994C62.948 14.6635 61.5491 15.9161 59.528 16.3902C56.9779 16.989 54.4961 16.7112 52.2338 15.2541C52.0491 15.1343 51.8645 15.0112 51.6981 14.8681C51.4519 14.6552 51.2207 14.424 50.9629 14.1811L50.9679 14.1845Z" fill="#009AFF"/>
<path d="M114.582 25.0917C113.792 24.1336 112.759 23.5663 111.518 23.3384C110.801 23.207 110.137 23.3285 109.523 23.6661C108.553 24.2001 108.41 25.3845 109.282 26.0632C109.766 26.4391 110.373 26.6853 110.959 26.8966C112.013 27.2758 113.118 27.5204 114.154 27.9362C115.593 28.5118 116.638 29.5514 116.834 31.1334C117.137 33.5703 116.237 35.5764 113.654 36.4215C110.255 37.5343 107.226 36.7608 104.486 34.432C105.235 33.4888 105.93 32.6105 106.662 31.689C106.81 31.862 106.933 32 107.051 32.1414C108.276 33.6136 109.888 34.0743 111.719 33.8797C112.107 33.8381 112.509 33.6335 112.835 33.404C113.665 32.8184 113.597 31.2615 112.636 30.9204C111.684 30.5828 110.728 30.2667 109.778 29.9257C109.033 29.6596 108.262 29.435 107.559 29.0823C104.849 27.7283 104.666 24.6193 105.998 22.5783C106.912 21.1793 108.276 20.5289 109.866 20.3459C112.371 20.0581 114.62 20.6603 116.473 22.4552C116.531 22.5117 116.568 22.5882 116.623 22.6664C115.951 23.4682 115.28 24.2667 114.587 25.0934L114.582 25.0917Z" fill="#009AFF"/>
<path d="M98.7703 3.00949C98.0317 3.68152 97.2748 4.37019 96.4664 5.10543C95.3186 4.01255 93.938 3.15421 92.1564 3.3638C90.8939 3.51185 89.8692 4.1373 89.0724 5.1204C87.3773 7.21302 87.7 10.174 89.4633 11.9588C90.9537 13.4676 93.8831 14.2361 96.7026 11.4897C97.4512 12.2499 98.2014 13.0101 98.9583 13.7786C96.6377 16.5782 92.7187 17.39 89.4433 16.0276C86.0981 14.6353 84.0787 11.2402 84.4613 7.41762C84.8023 4.01587 86.9099 1.16971 90.7674 0.224874C94.0877 -0.590216 97.5277 0.918532 98.7703 3.01115V3.00949Z" fill="#009AFF"/>
<path d="M126.522 16.2688V0.35791H129.995V13.1082H137.271V16.2688H126.522Z" fill="#009AFF"/>
<path d="M51.738 20.6372H55.1814V33.3759H62.3209V36.5298H51.738V20.6372Z" fill="#009AFF"/>
<path d="M101.801 0.344482H105.336V16.2604H101.801V0.344482Z" fill="#009AFF"/>
<path d="M68.5871 36.5629H65.187V20.6703H68.5871V36.5629Z" fill="#009AFF"/>
<path d="M94.0861 43.8138V47.6647H92.9683V41.4434H94.0595C94.991 42.6993 95.9658 44.0151 97.0554 45.4856V41.4218H98.2048V47.658H97.0786C96.1587 46.4038 95.189 45.0813 94.2208 43.7606C94.1759 43.7789 94.131 43.7955 94.0861 43.8138Z" fill="#009AFF"/>
<path d="M68.1499 45.3709H66.726V44.2381H69.4424C69.6304 46.1411 68.7538 47.4186 67.0171 47.8145C65.5599 48.1472 64.0229 47.2523 63.4873 45.7618C62.9001 44.1233 63.5904 42.3368 65.1091 41.6281C66.3401 41.0543 68.3579 41.2755 69.168 42.8358C68.9051 43.062 68.6357 43.2933 68.3096 43.5744C67.937 43.0554 67.5128 42.5979 66.8741 42.5746C66.4499 42.558 65.9708 42.5946 65.6015 42.7776C64.7565 43.1951 64.3955 44.1749 64.6351 45.1064C64.8746 46.038 65.6498 46.6834 66.5148 46.6717C67.2999 46.6617 67.8921 46.2093 68.1499 45.3726V45.3709Z" fill="#009AFF"/>
<path d="M124.647 44.5159C124.654 42.6645 126.043 41.2822 127.878 41.3005C129.744 41.3188 131.159 42.736 131.161 44.5891C131.163 46.4073 129.676 47.8877 127.856 47.8678C125.881 47.8461 124.522 46.1245 124.645 44.5143L124.647 44.5159ZM129.932 44.6074C129.734 42.944 128.568 42.4083 127.603 42.5298C126.683 42.6462 125.878 43.5478 125.873 44.5309C125.868 45.5922 126.748 46.5969 127.763 46.6851C128.777 46.7749 129.617 45.9731 129.932 44.6074Z" fill="#009AFF"/>
<path d="M82.7882 45.3975V44.2364H85.4148C85.646 46.0129 84.811 47.2572 83.2839 47.7429C81.9781 48.1571 80.1084 47.3404 79.5378 45.8117C78.9057 44.1183 79.7408 42.3534 81.0033 41.6813C82.1045 41.0958 84.2903 41.1723 85.1603 42.8075C84.8941 43.0487 84.6163 43.2999 84.3369 43.5527C83.3072 42.3999 82.7749 42.3667 81.8001 42.6977C80.9252 42.9954 80.5076 43.917 80.639 44.935C80.7488 45.7717 81.4442 46.4687 82.3324 46.6284C83.1192 46.7698 83.7148 46.4072 84.262 45.3975H82.7849H82.7882Z" fill="#009AFF"/>
<path d="M136.264 45.4291C136.619 46.1095 137.023 46.883 137.444 47.6881H136.055C135.686 46.9861 135.318 46.2891 134.937 45.5622H133.992V47.6415H132.69V41.3853C133.58 41.3853 134.466 41.3121 135.335 41.4019C136.978 41.5716 137.725 42.9423 137.134 44.3845C136.98 44.7604 136.595 45.0432 136.264 45.4275V45.4291ZM135.478 44.3329C136.18 43.7757 136.205 43.6542 135.792 42.8142C135.245 42.3834 134.611 42.6029 133.977 42.5597V44.3346C134.501 44.3346 134.99 44.3346 135.478 44.3346V44.3329Z" fill="#009AFF"/>
<path d="M106.206 41.3452C107.193 41.3951 108.126 41.4051 109.051 41.4999C109.929 41.5897 110.533 42.1154 110.703 42.9804C110.892 43.9352 110.709 44.8019 109.673 45.3125C110.075 46.091 110.471 46.8595 110.892 47.6763H109.515C109.139 46.971 108.766 46.2723 108.389 45.5621H107.424V47.6647H106.205V41.3452H106.206ZM108.924 44.3544C109.332 44.0749 109.651 43.7472 109.453 43.1983C109.265 42.676 108.838 42.5396 108.329 42.5562C108.036 42.5645 107.742 42.5562 107.457 42.5562V44.3544H108.924Z" fill="#009AFF"/>
<path d="M104.333 47.683H100.14V41.4451H104.277V42.5513H101.445V44.0118H104.039V45.1396H101.455V46.4936H104.333V47.683Z" fill="#009AFF"/>
<path d="M72.3382 45.1264V46.5121H75.2026V47.6748H71.0291V41.4319H75.1195V42.5264H72.3681V44.0152H74.9232V45.1264H72.3382Z" fill="#009AFF"/>
<path d="M91.1766 46.5218V47.6547H86.978V41.4517H91.0834V42.5246H88.3171V43.9884H90.8772V45.1462H88.3204V46.5235H91.1749L91.1766 46.5218Z" fill="#009AFF"/>
<path d="M57.7732 47.6831H56.479C57.339 45.5672 58.1774 43.5062 59.0241 41.4236H60.1552C60.9786 43.438 61.8303 45.5223 62.7053 47.6648H61.3729C61.1899 47.2739 60.9869 46.8381 60.7873 46.4106H58.2822C58.1108 46.8348 57.9512 47.2373 57.7715 47.6831H57.7732ZM60.3881 45.2562C60.0987 44.5126 59.8475 43.8655 59.5431 43.082C59.2403 43.8755 58.9858 44.5409 58.713 45.2562H60.3881Z" fill="#009AFF"/>
<path d="M114.593 41.4086H115.701C116.538 43.468 117.378 45.539 118.243 47.6699H116.897C116.726 47.2773 116.541 46.8564 116.347 46.4123H113.861C113.697 46.7899 113.514 47.2074 113.311 47.6699H112.037C112.888 45.5856 113.73 43.5262 114.595 41.407L114.593 41.4086ZM115.937 45.2645C115.656 44.5492 115.4 43.8938 115.091 43.107C114.791 43.9055 114.547 44.5592 114.282 45.2645H115.936H115.937Z" fill="#009AFF"/>
<path d="M52.8398 45.552V47.6646H51.5706V41.4167C52.4455 41.4167 53.3005 41.3435 54.1389 41.4317C56.0569 41.6346 56.5576 43.0968 56.0369 44.4159C55.7408 45.1694 55.0954 45.4639 54.3502 45.542C53.8894 45.5903 53.4186 45.5504 52.8398 45.5504V45.552ZM54.9989 43.486C54.5864 42.5628 54.1971 42.4164 52.8814 42.646V44.4275C54.4101 44.5623 54.6346 44.4625 54.9989 43.486Z" fill="#009AFF"/>
<path d="M121.979 47.6731H120.668V42.553H118.878V41.4485H123.666V42.5314H121.979V47.6731Z" fill="#009AFF"/>
<path d="M26.3073 15.8812C27.3104 16.8527 28.4631 17.39 29.7623 17.6445V26.5356C28.3467 26.8134 27.1207 27.4821 26.1343 28.7014C23.4495 27.2226 20.7913 25.7588 18.2695 24.3698C18.3211 23.1239 18.366 22.0094 18.4192 20.7019C20.9128 19.1782 23.5776 17.5497 26.3056 15.8829L26.3073 15.8812Z" fill="#009AFF"/>
</svg>
