<svg width="31" height="31" viewBox="0 0 31 31" fill="none" xmlns="http://www.w3.org/2000/svg">
<path d="M15.5 10.33C12.4647 10.33 10 12.7947 10 15.83C10 18.8653 12.4647 21.33 15.5 21.33C18.5353 21.33 21 18.8653 21 15.83C21 12.7947 18.5353 10.33 15.5 10.33ZM15.5 19.17C13.8424 19.17 12.5 17.8276 12.5 16.17C12.5 14.5124 13.8424 13.17 15.5 13.17C17.1576 13.17 18.5 14.5124 18.5 16.17C18.5 17.8276 17.1576 19.17 15.5 19.17Z" fill="#009AFF"/>
<path d="M21.85 9.58334C21.85 10.4098 21.1765 11.0833 20.35 11.0833C19.5235 11.0833 18.85 10.4098 18.85 9.58334C18.85 8.75687 19.5235 8.08334 20.35 8.08334C21.1765 8.08334 21.85 8.75687 21.85 9.58334Z" fill="#009AFF"/>
<path d="M10.3333 0H20.6667C25.9843 0 31 5.01568 31 10.3333V20.6667C31 25.9843 25.9843 31 20.6667 31H10.3333C5.01568 31 0 25.9843 0 20.6667V10.3333C0 5.01568 5.01568 0 10.3333 0ZM28 10.3333V20.6667C28 24.4954 24.8284 27.667 21 27.667H10C6.17159 27.667 3 24.4954 3 20.6667V10.3333C3 6.50501 6.17159 3.33334 10 3.33334H21C24.8284 3.33334 28 6.50501 28 10.3333Z" fill="#009AFF"/>
</svg>

