<svg width="31" height="31" viewBox="0 0 31 31" fill="none" xmlns="http://www.w3.org/2000/svg">
<path d="M0 5.16667C0 3.14268 1.64268 1.5 3.66667 1.5H27.3333C29.3573 1.5 31 3.14268 31 5.16667V27.3333C31 29.3573 29.3573 31 27.3333 31H3.66667C1.64268 31 0 29.3573 0 27.3333V5.16667Z" fill="#009AFF"/>
<path d="M9.16667 13.5H12.1667V24.1667H9.16667V13.5ZM9.33334 9.91667C9.33334 11.0125 8.42919 11.9167 7.33334 11.9167C6.2375 11.9167 5.33334 11.0125 5.33334 9.91667C5.33334 8.82083 6.2375 7.91667 7.33334 7.91667C8.42919 7.91667 9.33334 8.82083 9.33334 9.91667ZM24.1667 13.5H21.8333C21.1167 13.5 20.55 13.8667 20.3583 14.4333C20.3583 14.4333 20.3583 14.4333 20.3583 24.1667H17.1667V10.8333H20.1667V12.85C20.3083 12.4917 20.85 11.8333 22.0333 11.8333C23.5083 11.8333 24.1667 12.8333 24.1667 14.65V24.1667H24.1667Z" fill="white"/>
</svg>

