<svg width="29" height="29" viewBox="0 0 29 29" fill="none" xmlns="http://www.w3.org/2000/svg">
<path d="M14.5293 29C10.4664 29 7.02947 27.5939 4.21833 24.7816C1.40718 21.9693 0.00107624 18.5322 0 14.4704C0 10.7572 1.21077 7.5349 3.63231 4.80333C6.05385 2.07176 9.14805 0.477806 12.9149 0.0214681C13.2647 -0.0323453 13.5741 0.0150106 13.8431 0.163536C14.1122 0.312061 14.3275 0.506865 14.4889 0.747949C14.6503 0.989034 14.738 1.27155 14.752 1.59551C14.766 1.91947 14.6649 2.22889 14.4485 2.52379C13.9911 3.22337 13.6478 3.9633 13.4186 4.7436C13.1893 5.52389 13.0752 6.34455 13.0763 7.20556C13.0763 9.62716 13.9239 11.6855 15.6189 13.3807C17.314 15.0758 19.3723 15.9233 21.7939 15.9233C22.628 15.9233 23.4556 15.8023 24.2768 15.5601C25.0979 15.3179 25.8309 14.9816 26.4755 14.5511C26.7715 14.3627 27.0744 14.2756 27.3844 14.2896C27.6944 14.3036 27.9699 14.3773 28.211 14.5107C28.48 14.6453 28.6888 14.8471 28.8373 15.1161C28.9859 15.3852 29.0327 15.7081 28.9778 16.0848C28.6011 19.7979 27.0206 22.8787 24.2364 25.3272C21.4522 27.7757 18.2165 29 14.5293 29Z" fill="black"/>
</svg>
