<svg width="21" height="21" viewBox="0 0 21 21" fill="none" xmlns="http://www.w3.org/2000/svg">
<g opacity="0.36">
<path fill-rule="evenodd" clip-rule="evenodd" d="M0 10.5C0 4.70087 4.70087 0 10.5 0C16.2992 0 21.0001 4.70087 21.0001 10.5C21.0001 16.2992 16.2992 21.0001 10.5 21.0001C4.70087 21.0001 0 16.2992 0 10.5ZM10.5 2.10001C8.27222 2.10001 6.13563 2.98501 4.56032 4.56032C2.98501 6.13563 2.10001 8.27222 2.10001 10.5C2.10001 12.7279 2.98501 14.8645 4.56032 16.4398C6.13563 18.0151 8.27222 18.9001 10.5 18.9001C12.7279 18.9001 14.8645 18.0151 16.4398 16.4398C18.0151 14.8645 18.9001 12.7279 18.9001 10.5C18.9001 8.27222 18.0151 6.13563 16.4398 4.56032C14.8645 2.98501 12.7279 2.10001 10.5 2.10001Z" fill="#009AFF"/>
<path fill-rule="evenodd" clip-rule="evenodd" d="M11.55 5.24996C11.55 4.97148 11.4394 4.7044 11.2424 4.50749C11.0455 4.31058 10.7785 4.19995 10.5 4.19995C10.2215 4.19995 9.95443 4.31058 9.75751 4.50749C9.5606 4.7044 9.44997 4.97148 9.44997 5.24996V9.44997H5.24996C4.97148 9.44997 4.7044 9.5606 4.50749 9.75751C4.31058 9.95443 4.19995 10.2215 4.19995 10.5C4.19995 10.7785 4.31058 11.0455 4.50749 11.2424C4.7044 11.4394 4.97148 11.55 5.24996 11.55H9.44997V15.75C9.44997 16.0285 9.5606 16.2956 9.75751 16.4925C9.95443 16.6894 10.2215 16.8 10.5 16.8C10.7785 16.8 11.0455 16.6894 11.2424 16.4925C11.4394 16.2956 11.55 16.0285 11.55 15.75V11.55H15.75C16.0285 11.55 16.2956 11.4394 16.4925 11.2424C16.6894 11.0455 16.8 10.7785 16.8 10.5C16.8 10.2215 16.6894 9.95443 16.4925 9.75751C16.2956 9.5606 16.0285 9.44997 15.75 9.44997H11.55V5.24996Z" fill="#009AFF"/>
</g>
</svg>
