<svg width="29" height="30" viewBox="0 0 29 30" fill="none" xmlns="http://www.w3.org/2000/svg">
<path d="M21.2648 19.3472H19.921L19.4447 18.8724C20.5077 17.5956 21.2847 16.0916 21.7199 14.4682C22.1551 12.8447 22.2378 11.1418 21.9622 9.48143C21.1627 4.5925 17.2164 0.688389 12.4537 0.0904622C10.7792 -0.128545 9.07855 0.0513712 7.48173 0.616443C5.8849 1.18151 4.43427 2.11676 3.24084 3.35063C2.04741 4.58449 1.1428 6.08426 0.596244 7.73518C0.049688 9.3861 -0.124333 11.1444 0.0874981 12.8755C0.665833 17.7997 4.44202 21.8796 9.17076 22.7062C10.7768 22.9912 12.4238 22.9056 13.9941 22.4557C15.5644 22.0057 17.0191 21.2025 18.254 20.1034L18.7133 20.5958V21.9851L25.9425 29.4592C26.6399 30.1803 27.7795 30.1803 28.4769 29.4592C29.1744 28.7382 29.1744 27.5599 28.4769 26.8389L21.2648 19.3472ZM11.0589 19.3472C6.8234 19.3472 3.40442 15.8124 3.40442 11.4335C3.40442 7.05455 6.8234 3.51975 11.0589 3.51975C15.2943 3.51975 18.7133 7.05455 18.7133 11.4335C18.7133 15.8124 15.2943 19.3472 11.0589 19.3472Z" fill="black"/>
</svg>
