<svg width="31" height="31" viewBox="0 0 31 31" fill="none" xmlns="http://www.w3.org/2000/svg">
<path d="M31 5.765C29.8879 6.23528 28.6957 6.54595 27.4394 6.68057C28.7222 5.89595 29.7431 4.70528 30.193 3.32857C28.9956 4.04595 27.662 4.53057 26.2431 4.74595C25.11 3.53057 23.5174 2.74595 21.75 2.74595C18.3606 2.74595 15.6182 5.48829 15.6182 8.87772C15.6182 9.29595 15.6657 9.69972 15.7555 10.0877C11.2078 9.87095 7.15302 7.73772 4.31109 4.44857C3.864 5.17772 3.62287 6.04595 3.62287 6.98715C3.62287 8.76395 4.43787 10.3503 5.72287 11.2721C4.71006 11.2428 3.75459 10.9703 2.92237 10.4806V10.5559C2.92237 13.5459 4.85937 16.0806 7.52006 16.6721C7.08831 16.7889 6.63106 16.8521 6.16218 16.8521C5.83385 16.8521 5.51385 16.8206 5.20218 16.7659C5.85031 19.2559 8.03384 21.0339 10.617 21.0806C8.61218 22.7221 6.044 23.6309 3.25 23.6309C2.83384 23.6309 2.42287 23.6072 2.01531 23.5659C4.62718 25.3139 7.74531 26.3639 11.1367 26.3639C21.75 26.3639 28.3111 16.95 28.3111 9.48772C28.3111 9.28395 28.3062 9.08215 28.2953 8.88395C29.4903 7.93657 30.495 6.83772 31 5.765Z" fill="#009AFF"/>
</svg>

