<svg width="31" height="31" viewBox="0 0 31 31" fill="none" xmlns="http://www.w3.org/2000/svg">
<path d="M30.8 7.95C30.8 7.95 30.5 5.7 29.5 4.8C28.1 3.4 26.5 3.4 25.8 3.3C20.4 3 15.5 3 15.5 3H15.4C15.4 3 10.5 3 5.1 3.3C4.4 3.4 2.8 3.4 1.4 4.8C0.4 5.7 0.2 7.95 0.2 7.95C0.2 7.95 0 10.6 0 13.3V15.8C0 18.5 0.2 21.1 0.2 21.1C0.2 21.1 0.5 23.4 1.4 24.3C2.8 25.7 4.8 25.6 5.2 25.8C7.8 26 15.4 26.1 15.4 26.1C15.4 26.1 20.5 26 30.8 25.6C30.9 25.6 32.1 25.6 33.5 24.3C34.4 23.4 34.8 21.1 34.8 21.1C34.8 21.1 35 18.5 35 15.8V13.3C35 10.6 34.8 7.95 34.8 7.95H34.7C34.7 7.95 34.8 9.95 30.8 7.95ZM13.5 18.5V11.6L22 15.05L13.5 18.5Z" fill="#009AFF"/>
</svg>

